<?xml version="1.0" standalone="yes"?>
<svg xmlns="http://www.w3.org/2000/svg" width="50" height="50">
<path style="fill:#47714d; stroke:none;" d="M0 0L0 50L21 50L21 49C4.57185 39.504 3 25.173 3 8L23 1L0 0z"/>
<path style="fill:#ffcf01; stroke:none;" d="M3 8C3 18.7302 2.02935 29.7831 8.63735 39C20.7417 55.8833 39.2931 49.625 45.402 31C47.8035 23.6782 47 15.5886 47 8L25 0.425926L3 8z"/>
<path style="fill:#47714d; stroke:none;" d="M27 0L27 1L47 8C47 25.173 45.4282 39.504 29 49L29 50L50 50L50 0L27 0M11 9L11 10L19 8L10 18L7 18L10 11C4.3109 9.72223 5.79798 20.5166 6.30015 24C7.57701 32.8571 13.9871 45.2157 24 46.5008C36.9763 48.1662 50.1997 21.8028 42.9722 11.51C35.2552 0.520092 20.4076 5.79665 11 9z"/>
<path style="fill:#ffcf01; stroke:none;" d="M22 26C19.8817 24.0473 10.2898 18.1645 11.9707 26.044C15.5253 42.7073 34.5293 29.17 37.8241 20.0193C40.7689 11.8407 29.0845 17.9912 27.0185 20.0147C25.1093 21.8846 23.53 23.828 22 26z"/>
<path style="fill:#47714d; stroke:none;" d="M34 18C26.8945 25.1055 24.5882 29.2448 15 25C21.071 33.51 34.2198 28.3914 34 18z"/>
<path style="fill:#ffcf01; stroke:none;" d="M27 45C32.4418 42.8918 36.3212 39.1604 39 34C33.839 33.9191 28.3574 40.13 27 45z"/>
</svg>
